{"title":"Game.of.Thrones.S02E06.REPACK.HDTV.XviD-Atilla82","uid":7252550,"size":362099166,"categoryP":"video","categoryS":"tv_shows","magnet":"?xt=urn:btih:3e47fd779b0150907876312c082f7356b2204777&amp;dn=Game.of.Thrones.S02E06.REPACK.HDTV.XviD-Atilla82&amp;tr=udp%3A%2F%2Ftracker.openbittorrent.com%3A80&amp;tr=udp%3A%2F%2Fopen.demonii.com%3A1337&amp;tr=udp%3A%2F%2Ftracker.coppersurfer.tk%3A6969&amp;tr=udp%3A%2F%2Fexodus.desync.com%3A6969","seeders":2,"leechers":2,"uploader":"Atilla82","files":3,"time":1336492926,"description":"Game.of.Thrones.S02E06.REPACK.HDTV.XviD-Atilla82\n\nscreenshots included in torrent --- no repeating scenes --- audio synced\n\nlanguage: English\n\n\n\nGame of Thrones (2012)\n &lt;a href=&quot;\nhttp://www.imdb.com/title/tt0944947/&quot; rel=&quot;nofollow&quot; target=&quot;_NEW&quot;&gt;\nhttp://www.imdb.com/title/tt0944947/&lt;/a&gt;\n\nSeven noble families fight for control of the mythical land of Westeros.\n\n\n\n\n\nGeneral\nComplete name : Game.of.Thrones.S02E06.REPACK.HDTV.XviD-Atilla82.avi\nFormat : AVI\nFormat/Info : Audio Video Interleave\nFile size : 345 MiB\nDuration : 54mn 32s\nOverall bit rate : 885 Kbps\nWriting application : Lavf52.61.0\nWriting library : VirtualDub build 29808/release\n\nVideo\nID : 0\nFormat : MPEG-4 Visual\nFormat profile : Advanced Simple@L5\nFormat settings, BVOP : No\nFormat settings, QPel : Yes\nFormat settings, GMC : No warppoints\nFormat settings, Matrix : Default (H.263)\nCodec ID : XVID\nCodec ID/Hint : XviD\nDuration : 54mn 32s\nBit rate : 745 Kbps\nWidth : 680 pixels\nHeight : 380 pixels\nDisplay aspect ratio : 16:9\nFrame rate : 29.970 fps\nColor space : YUV\nChroma subsampling : 4:2:0\nBit depth : 8 bits\nScan type : Progressive\nCompression mode : Lossy\nBits/(Pixel*Frame) : 0.096\nStream size : 291 MiB (84%)\nWriting library : XviD 64\n\nAudio\nID : 1\nFormat : MPEG Audio\nFormat version : Version 1\nFormat profile : Layer 3\nCodec ID : 55\nCodec ID/Hint : MP3\nDuration : 54mn 32s\nBit rate mode : Constant\nBit rate : 128 Kbps\nChannel(s) : 2 channels\nSampling rate : 48.0 KHz\nCompression mode : Lossy\nDelay relative to video : 4ms\nStream size : 49.9 MiB (14%)\nAlignment : Split accross interleaves\nInterleave, duration : 33 ms (1.00 video frame)\nInterleave, preload duration : 500 ms\nWriting library : LAMEÅžÅž\n\n","torrent":{"xt":"urn:btih:3e47fd779b0150907876312c082f7356b2204777","amp;dn":"Game.of.Thrones.S02E06.REPACK.HDTV.XviD-Atilla82","amp;tr":["udp%3A%2F%2Ftracker.openbittorrent.com%3A80","udp%3A%2F%2Fopen.demonii.com%3A1337","udp%3A%2F%2Ftracker.coppersurfer.tk%3A6969","udp%3A%2F%2Fexodus.desync.com%3A6969"],"infoHash":"3e47fd779b0150907876312c082f7356b2204777","infoHashBuffer":{"type":"Buffer","data":[62,71,253,119,155,1,80,144,120,118,49,44,8,47,115,86,178,32,71,119]},"announce":[],"urlList":[]}}